<mxfile host="app.diagrams.net" modified="2021-06-05T11:31:52.892Z" agent="5.0 (Windows NT 10.0; Win64; x64) AppleWebKit/537.36 (KHTML, like Gecko) Chrome/88.0.4324.182 Safari/537.36" etag="5xrKtW3WQemkByWh4P2t" version="14.7.6" type="github">
  <diagram id="pfcM3bttXem0MhIztuWE" name="Page-1">
    <mxGraphModel dx="1753" dy="1064" grid="1" gridSize="10" guides="1" tooltips="1" connect="1" arrows="1" fold="1" page="1" pageScale="1" pageWidth="3300" pageHeight="4681" math="0" shadow="0">
      <root>
        <mxCell id="0" />
        <mxCell id="1" parent="0" />
        <mxCell id="5b7TOtmZeHApVHeLRPyt-3" value="" style="edgeStyle=orthogonalEdgeStyle;rounded=0;orthogonalLoop=1;jettySize=auto;html=1;" edge="1" parent="1" source="5b7TOtmZeHApVHeLRPyt-1" target="5b7TOtmZeHApVHeLRPyt-2">
          <mxGeometry relative="1" as="geometry" />
        </mxCell>
        <mxCell id="5b7TOtmZeHApVHeLRPyt-1" value="FUNCTION print_table(data, mode, space, login_name = &quot;&quot;)" style="shape=process;whiteSpace=wrap;html=1;backgroundOutline=1;" vertex="1" parent="1">
          <mxGeometry x="780" y="80" width="290" height="60" as="geometry" />
        </mxCell>
        <mxCell id="5b7TOtmZeHApVHeLRPyt-5" value="" style="edgeStyle=orthogonalEdgeStyle;rounded=0;orthogonalLoop=1;jettySize=auto;html=1;" edge="1" parent="1" source="5b7TOtmZeHApVHeLRPyt-2" target="5b7TOtmZeHApVHeLRPyt-4">
          <mxGeometry relative="1" as="geometry" />
        </mxCell>
        <mxCell id="5b7TOtmZeHApVHeLRPyt-2" value="rows = LEN(data)" style="rounded=1;whiteSpace=wrap;html=1;" vertex="1" parent="1">
          <mxGeometry x="810" y="190" width="230" height="40" as="geometry" />
        </mxCell>
        <mxCell id="5b7TOtmZeHApVHeLRPyt-7" style="edgeStyle=orthogonalEdgeStyle;rounded=0;orthogonalLoop=1;jettySize=auto;html=1;entryX=0.5;entryY=0;entryDx=0;entryDy=0;" edge="1" parent="1" source="5b7TOtmZeHApVHeLRPyt-4" target="5b7TOtmZeHApVHeLRPyt-6">
          <mxGeometry relative="1" as="geometry" />
        </mxCell>
        <mxCell id="5b7TOtmZeHApVHeLRPyt-4" value="start = 1" style="rounded=1;whiteSpace=wrap;html=1;" vertex="1" parent="1">
          <mxGeometry x="810" y="270" width="230" height="40" as="geometry" />
        </mxCell>
        <mxCell id="5b7TOtmZeHApVHeLRPyt-9" value="" style="edgeStyle=orthogonalEdgeStyle;rounded=0;orthogonalLoop=1;jettySize=auto;html=1;" edge="1" parent="1" source="5b7TOtmZeHApVHeLRPyt-6" target="5b7TOtmZeHApVHeLRPyt-8">
          <mxGeometry relative="1" as="geometry" />
        </mxCell>
        <mxCell id="5b7TOtmZeHApVHeLRPyt-37" style="edgeStyle=orthogonalEdgeStyle;rounded=0;orthogonalLoop=1;jettySize=auto;html=1;entryX=0;entryY=0.5;entryDx=0;entryDy=0;" edge="1" parent="1" source="5b7TOtmZeHApVHeLRPyt-6" target="5b7TOtmZeHApVHeLRPyt-13">
          <mxGeometry relative="1" as="geometry" />
        </mxCell>
        <mxCell id="5b7TOtmZeHApVHeLRPyt-6" value="mode == 1" style="rhombus;whiteSpace=wrap;html=1;" vertex="1" parent="1">
          <mxGeometry x="190" y="380" width="110" height="100" as="geometry" />
        </mxCell>
        <mxCell id="5b7TOtmZeHApVHeLRPyt-11" value="" style="edgeStyle=orthogonalEdgeStyle;rounded=0;orthogonalLoop=1;jettySize=auto;html=1;" edge="1" parent="1" source="5b7TOtmZeHApVHeLRPyt-8" target="5b7TOtmZeHApVHeLRPyt-10">
          <mxGeometry relative="1" as="geometry" />
        </mxCell>
        <mxCell id="5b7TOtmZeHApVHeLRPyt-8" value="columns = 11" style="rounded=1;whiteSpace=wrap;html=1;" vertex="1" parent="1">
          <mxGeometry x="130" y="520" width="230" height="40" as="geometry" />
        </mxCell>
        <mxCell id="5b7TOtmZeHApVHeLRPyt-10" value="PRINT(&quot;Please Select: &quot;)" style="rounded=1;whiteSpace=wrap;html=1;" vertex="1" parent="1">
          <mxGeometry x="130" y="610" width="230" height="40" as="geometry" />
        </mxCell>
        <mxCell id="5b7TOtmZeHApVHeLRPyt-12" value="" style="edgeStyle=orthogonalEdgeStyle;rounded=0;orthogonalLoop=1;jettySize=auto;html=1;" edge="1" parent="1" source="5b7TOtmZeHApVHeLRPyt-13" target="5b7TOtmZeHApVHeLRPyt-15">
          <mxGeometry relative="1" as="geometry" />
        </mxCell>
        <mxCell id="5b7TOtmZeHApVHeLRPyt-38" style="edgeStyle=orthogonalEdgeStyle;rounded=0;orthogonalLoop=1;jettySize=auto;html=1;" edge="1" parent="1" source="5b7TOtmZeHApVHeLRPyt-13" target="5b7TOtmZeHApVHeLRPyt-18">
          <mxGeometry relative="1" as="geometry" />
        </mxCell>
        <mxCell id="5b7TOtmZeHApVHeLRPyt-13" value="mode == 2" style="rhombus;whiteSpace=wrap;html=1;" vertex="1" parent="1">
          <mxGeometry x="450" y="380" width="110" height="100" as="geometry" />
        </mxCell>
        <mxCell id="5b7TOtmZeHApVHeLRPyt-14" value="" style="edgeStyle=orthogonalEdgeStyle;rounded=0;orthogonalLoop=1;jettySize=auto;html=1;" edge="1" parent="1" source="5b7TOtmZeHApVHeLRPyt-15" target="5b7TOtmZeHApVHeLRPyt-16">
          <mxGeometry relative="1" as="geometry" />
        </mxCell>
        <mxCell id="5b7TOtmZeHApVHeLRPyt-15" value="columns = 13" style="rounded=1;whiteSpace=wrap;html=1;" vertex="1" parent="1">
          <mxGeometry x="390" y="520" width="230" height="40" as="geometry" />
        </mxCell>
        <mxCell id="5b7TOtmZeHApVHeLRPyt-62" style="edgeStyle=orthogonalEdgeStyle;rounded=0;orthogonalLoop=1;jettySize=auto;html=1;" edge="1" parent="1" source="5b7TOtmZeHApVHeLRPyt-16">
          <mxGeometry relative="1" as="geometry">
            <mxPoint x="505" y="950" as="targetPoint" />
          </mxGeometry>
        </mxCell>
        <mxCell id="5b7TOtmZeHApVHeLRPyt-16" value="blanks = 183" style="rounded=1;whiteSpace=wrap;html=1;" vertex="1" parent="1">
          <mxGeometry x="390" y="610" width="230" height="40" as="geometry" />
        </mxCell>
        <mxCell id="5b7TOtmZeHApVHeLRPyt-17" value="" style="edgeStyle=orthogonalEdgeStyle;rounded=0;orthogonalLoop=1;jettySize=auto;html=1;" edge="1" parent="1" source="5b7TOtmZeHApVHeLRPyt-18" target="5b7TOtmZeHApVHeLRPyt-20">
          <mxGeometry relative="1" as="geometry" />
        </mxCell>
        <mxCell id="5b7TOtmZeHApVHeLRPyt-39" style="edgeStyle=orthogonalEdgeStyle;rounded=0;orthogonalLoop=1;jettySize=auto;html=1;entryX=0;entryY=0.5;entryDx=0;entryDy=0;" edge="1" parent="1" source="5b7TOtmZeHApVHeLRPyt-18" target="5b7TOtmZeHApVHeLRPyt-23">
          <mxGeometry relative="1" as="geometry" />
        </mxCell>
        <mxCell id="5b7TOtmZeHApVHeLRPyt-18" value="mode == 3 OR mode == 5" style="rhombus;whiteSpace=wrap;html=1;" vertex="1" parent="1">
          <mxGeometry x="695" y="380" width="160" height="100" as="geometry" />
        </mxCell>
        <mxCell id="5b7TOtmZeHApVHeLRPyt-19" value="" style="edgeStyle=orthogonalEdgeStyle;rounded=0;orthogonalLoop=1;jettySize=auto;html=1;" edge="1" parent="1" source="5b7TOtmZeHApVHeLRPyt-20" target="5b7TOtmZeHApVHeLRPyt-21">
          <mxGeometry relative="1" as="geometry" />
        </mxCell>
        <mxCell id="5b7TOtmZeHApVHeLRPyt-20" value="columns = 19" style="rounded=1;whiteSpace=wrap;html=1;" vertex="1" parent="1">
          <mxGeometry x="660" y="520" width="230" height="40" as="geometry" />
        </mxCell>
        <mxCell id="5b7TOtmZeHApVHeLRPyt-63" style="edgeStyle=orthogonalEdgeStyle;rounded=0;orthogonalLoop=1;jettySize=auto;html=1;" edge="1" parent="1" source="5b7TOtmZeHApVHeLRPyt-21">
          <mxGeometry relative="1" as="geometry">
            <mxPoint x="775" y="950" as="targetPoint" />
          </mxGeometry>
        </mxCell>
        <mxCell id="5b7TOtmZeHApVHeLRPyt-21" value="blanks = 302" style="rounded=1;whiteSpace=wrap;html=1;" vertex="1" parent="1">
          <mxGeometry x="660" y="610" width="230" height="40" as="geometry" />
        </mxCell>
        <mxCell id="5b7TOtmZeHApVHeLRPyt-22" value="" style="edgeStyle=orthogonalEdgeStyle;rounded=0;orthogonalLoop=1;jettySize=auto;html=1;" edge="1" parent="1" source="5b7TOtmZeHApVHeLRPyt-23" target="5b7TOtmZeHApVHeLRPyt-25">
          <mxGeometry relative="1" as="geometry" />
        </mxCell>
        <mxCell id="5b7TOtmZeHApVHeLRPyt-40" style="edgeStyle=orthogonalEdgeStyle;rounded=0;orthogonalLoop=1;jettySize=auto;html=1;" edge="1" parent="1" source="5b7TOtmZeHApVHeLRPyt-23" target="5b7TOtmZeHApVHeLRPyt-28">
          <mxGeometry relative="1" as="geometry" />
        </mxCell>
        <mxCell id="5b7TOtmZeHApVHeLRPyt-23" value="mode == 4" style="rhombus;whiteSpace=wrap;html=1;" vertex="1" parent="1">
          <mxGeometry x="1000" y="380" width="110" height="100" as="geometry" />
        </mxCell>
        <mxCell id="5b7TOtmZeHApVHeLRPyt-24" value="" style="edgeStyle=orthogonalEdgeStyle;rounded=0;orthogonalLoop=1;jettySize=auto;html=1;" edge="1" parent="1" source="5b7TOtmZeHApVHeLRPyt-25" target="5b7TOtmZeHApVHeLRPyt-26">
          <mxGeometry relative="1" as="geometry" />
        </mxCell>
        <mxCell id="5b7TOtmZeHApVHeLRPyt-25" value="columns = 13" style="rounded=1;whiteSpace=wrap;html=1;" vertex="1" parent="1">
          <mxGeometry x="940" y="520" width="230" height="40" as="geometry" />
        </mxCell>
        <mxCell id="5b7TOtmZeHApVHeLRPyt-66" style="edgeStyle=orthogonalEdgeStyle;rounded=0;orthogonalLoop=1;jettySize=auto;html=1;" edge="1" parent="1" source="5b7TOtmZeHApVHeLRPyt-26">
          <mxGeometry relative="1" as="geometry">
            <mxPoint x="1055" y="950" as="targetPoint" />
          </mxGeometry>
        </mxCell>
        <mxCell id="5b7TOtmZeHApVHeLRPyt-26" value="blanks = 143" style="rounded=1;whiteSpace=wrap;html=1;" vertex="1" parent="1">
          <mxGeometry x="940" y="610" width="230" height="40" as="geometry" />
        </mxCell>
        <mxCell id="5b7TOtmZeHApVHeLRPyt-27" value="" style="edgeStyle=orthogonalEdgeStyle;rounded=0;orthogonalLoop=1;jettySize=auto;html=1;" edge="1" parent="1" source="5b7TOtmZeHApVHeLRPyt-28" target="5b7TOtmZeHApVHeLRPyt-30">
          <mxGeometry relative="1" as="geometry" />
        </mxCell>
        <mxCell id="5b7TOtmZeHApVHeLRPyt-42" style="edgeStyle=orthogonalEdgeStyle;rounded=0;orthogonalLoop=1;jettySize=auto;html=1;entryX=0;entryY=0.5;entryDx=0;entryDy=0;" edge="1" parent="1" source="5b7TOtmZeHApVHeLRPyt-28" target="5b7TOtmZeHApVHeLRPyt-33">
          <mxGeometry relative="1" as="geometry" />
        </mxCell>
        <mxCell id="5b7TOtmZeHApVHeLRPyt-28" value="mode == 6" style="rhombus;whiteSpace=wrap;html=1;" vertex="1" parent="1">
          <mxGeometry x="1290" y="380" width="110" height="100" as="geometry" />
        </mxCell>
        <mxCell id="5b7TOtmZeHApVHeLRPyt-29" value="" style="edgeStyle=orthogonalEdgeStyle;rounded=0;orthogonalLoop=1;jettySize=auto;html=1;" edge="1" parent="1" source="5b7TOtmZeHApVHeLRPyt-30" target="5b7TOtmZeHApVHeLRPyt-31">
          <mxGeometry relative="1" as="geometry" />
        </mxCell>
        <mxCell id="5b7TOtmZeHApVHeLRPyt-30" value="columns = 4" style="rounded=1;whiteSpace=wrap;html=1;" vertex="1" parent="1">
          <mxGeometry x="1230" y="520" width="230" height="40" as="geometry" />
        </mxCell>
        <mxCell id="5b7TOtmZeHApVHeLRPyt-65" style="edgeStyle=orthogonalEdgeStyle;rounded=0;orthogonalLoop=1;jettySize=auto;html=1;" edge="1" parent="1" source="5b7TOtmZeHApVHeLRPyt-31">
          <mxGeometry relative="1" as="geometry">
            <mxPoint x="1345" y="950" as="targetPoint" />
          </mxGeometry>
        </mxCell>
        <mxCell id="5b7TOtmZeHApVHeLRPyt-31" value="blanks = 61" style="rounded=1;whiteSpace=wrap;html=1;" vertex="1" parent="1">
          <mxGeometry x="1230" y="610" width="230" height="40" as="geometry" />
        </mxCell>
        <mxCell id="5b7TOtmZeHApVHeLRPyt-32" value="" style="edgeStyle=orthogonalEdgeStyle;rounded=0;orthogonalLoop=1;jettySize=auto;html=1;" edge="1" parent="1" source="5b7TOtmZeHApVHeLRPyt-33" target="5b7TOtmZeHApVHeLRPyt-35">
          <mxGeometry relative="1" as="geometry" />
        </mxCell>
        <mxCell id="5b7TOtmZeHApVHeLRPyt-33" value="mode == 7 OR mode == 8" style="rhombus;whiteSpace=wrap;html=1;" vertex="1" parent="1">
          <mxGeometry x="1540" y="380" width="170" height="100" as="geometry" />
        </mxCell>
        <mxCell id="5b7TOtmZeHApVHeLRPyt-34" value="" style="edgeStyle=orthogonalEdgeStyle;rounded=0;orthogonalLoop=1;jettySize=auto;html=1;" edge="1" parent="1" source="5b7TOtmZeHApVHeLRPyt-35" target="5b7TOtmZeHApVHeLRPyt-36">
          <mxGeometry relative="1" as="geometry" />
        </mxCell>
        <mxCell id="5b7TOtmZeHApVHeLRPyt-35" value="columns = 19" style="rounded=1;whiteSpace=wrap;html=1;" vertex="1" parent="1">
          <mxGeometry x="1510" y="520" width="230" height="40" as="geometry" />
        </mxCell>
        <mxCell id="5b7TOtmZeHApVHeLRPyt-64" style="edgeStyle=orthogonalEdgeStyle;rounded=0;orthogonalLoop=1;jettySize=auto;html=1;entryX=1;entryY=0.5;entryDx=0;entryDy=0;" edge="1" parent="1" source="5b7TOtmZeHApVHeLRPyt-36" target="5b7TOtmZeHApVHeLRPyt-59">
          <mxGeometry relative="1" as="geometry">
            <Array as="points">
              <mxPoint x="1625" y="950" />
            </Array>
          </mxGeometry>
        </mxCell>
        <mxCell id="5b7TOtmZeHApVHeLRPyt-36" value="blanks = 302" style="rounded=1;whiteSpace=wrap;html=1;" vertex="1" parent="1">
          <mxGeometry x="1510" y="610" width="230" height="40" as="geometry" />
        </mxCell>
        <mxCell id="5b7TOtmZeHApVHeLRPyt-45" value="" style="edgeStyle=orthogonalEdgeStyle;rounded=0;orthogonalLoop=1;jettySize=auto;html=1;" edge="1" parent="1" source="5b7TOtmZeHApVHeLRPyt-43" target="5b7TOtmZeHApVHeLRPyt-44">
          <mxGeometry relative="1" as="geometry" />
        </mxCell>
        <mxCell id="5b7TOtmZeHApVHeLRPyt-43" value="start = 2" style="rounded=1;whiteSpace=wrap;html=1;" vertex="1" parent="1">
          <mxGeometry x="130" y="610" width="230" height="40" as="geometry" />
        </mxCell>
        <mxCell id="5b7TOtmZeHApVHeLRPyt-61" style="edgeStyle=orthogonalEdgeStyle;rounded=0;orthogonalLoop=1;jettySize=auto;html=1;entryX=0;entryY=0.5;entryDx=0;entryDy=0;" edge="1" parent="1" source="5b7TOtmZeHApVHeLRPyt-44" target="5b7TOtmZeHApVHeLRPyt-59">
          <mxGeometry relative="1" as="geometry">
            <Array as="points">
              <mxPoint x="245" y="950" />
            </Array>
          </mxGeometry>
        </mxCell>
        <mxCell id="5b7TOtmZeHApVHeLRPyt-44" value="blanks = 180" style="rounded=1;whiteSpace=wrap;html=1;" vertex="1" parent="1">
          <mxGeometry x="130" y="700" width="230" height="40" as="geometry" />
        </mxCell>
        <mxCell id="5b7TOtmZeHApVHeLRPyt-47" value="True" style="text;html=1;align=center;verticalAlign=middle;resizable=0;points=[];autosize=1;strokeColor=none;" vertex="1" parent="1">
          <mxGeometry x="240" y="480" width="40" height="20" as="geometry" />
        </mxCell>
        <mxCell id="5b7TOtmZeHApVHeLRPyt-48" value="True" style="text;html=1;align=center;verticalAlign=middle;resizable=0;points=[];autosize=1;strokeColor=none;" vertex="1" parent="1">
          <mxGeometry x="500" y="480" width="40" height="20" as="geometry" />
        </mxCell>
        <mxCell id="5b7TOtmZeHApVHeLRPyt-49" value="True" style="text;html=1;align=center;verticalAlign=middle;resizable=0;points=[];autosize=1;strokeColor=none;" vertex="1" parent="1">
          <mxGeometry x="770" y="480" width="40" height="20" as="geometry" />
        </mxCell>
        <mxCell id="5b7TOtmZeHApVHeLRPyt-50" value="True" style="text;html=1;align=center;verticalAlign=middle;resizable=0;points=[];autosize=1;strokeColor=none;" vertex="1" parent="1">
          <mxGeometry x="1050" y="480" width="40" height="20" as="geometry" />
        </mxCell>
        <mxCell id="5b7TOtmZeHApVHeLRPyt-51" value="True" style="text;html=1;align=center;verticalAlign=middle;resizable=0;points=[];autosize=1;strokeColor=none;" vertex="1" parent="1">
          <mxGeometry x="1620" y="480" width="40" height="20" as="geometry" />
        </mxCell>
        <mxCell id="5b7TOtmZeHApVHeLRPyt-52" value="True" style="text;html=1;align=center;verticalAlign=middle;resizable=0;points=[];autosize=1;strokeColor=none;" vertex="1" parent="1">
          <mxGeometry x="1340" y="480" width="40" height="20" as="geometry" />
        </mxCell>
        <mxCell id="5b7TOtmZeHApVHeLRPyt-53" value="False" style="text;html=1;align=center;verticalAlign=middle;resizable=0;points=[];autosize=1;strokeColor=none;" vertex="1" parent="1">
          <mxGeometry x="300" y="410" width="40" height="20" as="geometry" />
        </mxCell>
        <mxCell id="5b7TOtmZeHApVHeLRPyt-54" value="False" style="text;html=1;align=center;verticalAlign=middle;resizable=0;points=[];autosize=1;strokeColor=none;" vertex="1" parent="1">
          <mxGeometry x="560" y="410" width="40" height="20" as="geometry" />
        </mxCell>
        <mxCell id="5b7TOtmZeHApVHeLRPyt-55" value="False" style="text;html=1;align=center;verticalAlign=middle;resizable=0;points=[];autosize=1;strokeColor=none;" vertex="1" parent="1">
          <mxGeometry x="855" y="410" width="40" height="20" as="geometry" />
        </mxCell>
        <mxCell id="5b7TOtmZeHApVHeLRPyt-56" value="False" style="text;html=1;align=center;verticalAlign=middle;resizable=0;points=[];autosize=1;strokeColor=none;" vertex="1" parent="1">
          <mxGeometry x="1110" y="410" width="40" height="20" as="geometry" />
        </mxCell>
        <mxCell id="5b7TOtmZeHApVHeLRPyt-57" value="False" style="text;html=1;align=center;verticalAlign=middle;resizable=0;points=[];autosize=1;strokeColor=none;" vertex="1" parent="1">
          <mxGeometry x="1400" y="410" width="40" height="20" as="geometry" />
        </mxCell>
        <mxCell id="5b7TOtmZeHApVHeLRPyt-74" style="edgeStyle=orthogonalEdgeStyle;rounded=0;orthogonalLoop=1;jettySize=auto;html=1;entryX=0.75;entryY=0;entryDx=0;entryDy=0;" edge="1" parent="1" source="5b7TOtmZeHApVHeLRPyt-59" target="5b7TOtmZeHApVHeLRPyt-70">
          <mxGeometry relative="1" as="geometry" />
        </mxCell>
        <mxCell id="5b7TOtmZeHApVHeLRPyt-59" value="start = 1" style="rounded=1;whiteSpace=wrap;html=1;" vertex="1" parent="1">
          <mxGeometry x="800" y="930" width="230" height="40" as="geometry" />
        </mxCell>
        <mxCell id="5b7TOtmZeHApVHeLRPyt-68" value="" style="group" vertex="1" connectable="0" parent="1">
          <mxGeometry x="795" y="1060" width="230" height="90" as="geometry" />
        </mxCell>
        <mxCell id="5b7TOtmZeHApVHeLRPyt-69" value="" style="shape=hexagon;perimeter=hexagonPerimeter2;whiteSpace=wrap;html=1;fixedSize=1;" vertex="1" parent="5b7TOtmZeHApVHeLRPyt-68">
          <mxGeometry width="230.00000000000003" height="90" as="geometry" />
        </mxCell>
        <mxCell id="5b7TOtmZeHApVHeLRPyt-70" value="i" style="text;html=1;strokeColor=none;fillColor=none;align=center;verticalAlign=middle;whiteSpace=wrap;rounded=0;" vertex="1" parent="5b7TOtmZeHApVHeLRPyt-68">
          <mxGeometry x="87.61904761904762" width="43.80952380952381" height="20" as="geometry" />
        </mxCell>
        <mxCell id="5b7TOtmZeHApVHeLRPyt-71" value="0" style="text;html=1;strokeColor=none;fillColor=none;align=center;verticalAlign=middle;whiteSpace=wrap;rounded=0;" vertex="1" parent="5b7TOtmZeHApVHeLRPyt-68">
          <mxGeometry x="10.952380952380953" y="35" width="43.80952380952381" height="20" as="geometry" />
        </mxCell>
        <mxCell id="5b7TOtmZeHApVHeLRPyt-72" value="1" style="text;html=1;strokeColor=none;fillColor=none;align=center;verticalAlign=middle;whiteSpace=wrap;rounded=0;" vertex="1" parent="5b7TOtmZeHApVHeLRPyt-68">
          <mxGeometry x="87.61904761904762" y="70" width="43.80952380952381" height="20" as="geometry" />
        </mxCell>
        <mxCell id="5b7TOtmZeHApVHeLRPyt-73" value="data[0]" style="text;html=1;strokeColor=none;fillColor=none;align=center;verticalAlign=middle;whiteSpace=wrap;rounded=0;" vertex="1" parent="5b7TOtmZeHApVHeLRPyt-68">
          <mxGeometry x="164.2857142857143" y="35" width="43.80952380952381" height="20" as="geometry" />
        </mxCell>
        <mxCell id="5b7TOtmZeHApVHeLRPyt-75" value="" style="edgeStyle=orthogonalEdgeStyle;rounded=0;orthogonalLoop=1;jettySize=auto;html=1;" edge="1" parent="1" source="5b7TOtmZeHApVHeLRPyt-77" target="5b7TOtmZeHApVHeLRPyt-79">
          <mxGeometry relative="1" as="geometry" />
        </mxCell>
        <mxCell id="5b7TOtmZeHApVHeLRPyt-76" style="edgeStyle=orthogonalEdgeStyle;rounded=0;orthogonalLoop=1;jettySize=auto;html=1;" edge="1" parent="1" source="5b7TOtmZeHApVHeLRPyt-77" target="5b7TOtmZeHApVHeLRPyt-83">
          <mxGeometry relative="1" as="geometry" />
        </mxCell>
        <mxCell id="5b7TOtmZeHApVHeLRPyt-77" value="mode == 4 AND (i == &quot;Total Quantity&quot; OR i == &quot;Available&quot; OR i == &quot;Unavailable&quot; OR i == &quot;In Service&quot; )" style="rhombus;whiteSpace=wrap;html=1;" vertex="1" parent="1">
          <mxGeometry x="280" y="1240" width="405" height="180" as="geometry" />
        </mxCell>
        <mxCell id="5b7TOtmZeHApVHeLRPyt-78" value="" style="edgeStyle=orthogonalEdgeStyle;rounded=0;orthogonalLoop=1;jettySize=auto;html=1;" edge="1" parent="1" source="5b7TOtmZeHApVHeLRPyt-79" target="5b7TOtmZeHApVHeLRPyt-80">
          <mxGeometry relative="1" as="geometry" />
        </mxCell>
        <mxCell id="5b7TOtmZeHApVHeLRPyt-79" value="k = k + 1" style="rounded=1;whiteSpace=wrap;html=1;" vertex="1" parent="1">
          <mxGeometry x="367.5" y="1540" width="230" height="40" as="geometry" />
        </mxCell>
        <mxCell id="5b7TOtmZeHApVHeLRPyt-109" style="edgeStyle=orthogonalEdgeStyle;rounded=0;orthogonalLoop=1;jettySize=auto;html=1;entryX=0;entryY=0.5;entryDx=0;entryDy=0;" edge="1" parent="1" source="5b7TOtmZeHApVHeLRPyt-80" target="5b7TOtmZeHApVHeLRPyt-69">
          <mxGeometry relative="1" as="geometry">
            <Array as="points">
              <mxPoint x="482" y="1730" />
              <mxPoint x="230" y="1730" />
              <mxPoint x="230" y="1105" />
            </Array>
          </mxGeometry>
        </mxCell>
        <mxCell id="5b7TOtmZeHApVHeLRPyt-80" value="CONTINUE" style="rounded=1;whiteSpace=wrap;html=1;" vertex="1" parent="1">
          <mxGeometry x="367.5" y="1630" width="230" height="40" as="geometry" />
        </mxCell>
        <mxCell id="5b7TOtmZeHApVHeLRPyt-81" value="" style="edgeStyle=orthogonalEdgeStyle;rounded=0;orthogonalLoop=1;jettySize=auto;html=1;" edge="1" parent="1" source="5b7TOtmZeHApVHeLRPyt-83" target="5b7TOtmZeHApVHeLRPyt-85">
          <mxGeometry relative="1" as="geometry" />
        </mxCell>
        <mxCell id="5b7TOtmZeHApVHeLRPyt-82" style="edgeStyle=orthogonalEdgeStyle;rounded=0;orthogonalLoop=1;jettySize=auto;html=1;entryX=0;entryY=0.5;entryDx=0;entryDy=0;" edge="1" parent="1" source="5b7TOtmZeHApVHeLRPyt-83" target="5b7TOtmZeHApVHeLRPyt-88">
          <mxGeometry relative="1" as="geometry" />
        </mxCell>
        <mxCell id="5b7TOtmZeHApVHeLRPyt-83" value="mode == 6 AND (k &amp;gt;= 4 AND k &amp;lt;= 12)" style="rhombus;whiteSpace=wrap;html=1;" vertex="1" parent="1">
          <mxGeometry x="777.5" y="1280" width="260" height="100" as="geometry" />
        </mxCell>
        <mxCell id="5b7TOtmZeHApVHeLRPyt-84" value="" style="edgeStyle=orthogonalEdgeStyle;rounded=0;orthogonalLoop=1;jettySize=auto;html=1;" edge="1" parent="1" source="5b7TOtmZeHApVHeLRPyt-85" target="5b7TOtmZeHApVHeLRPyt-86">
          <mxGeometry relative="1" as="geometry" />
        </mxCell>
        <mxCell id="5b7TOtmZeHApVHeLRPyt-85" value="k = k + 1" style="rounded=1;whiteSpace=wrap;html=1;" vertex="1" parent="1">
          <mxGeometry x="792.5" y="1540" width="230" height="40" as="geometry" />
        </mxCell>
        <mxCell id="5b7TOtmZeHApVHeLRPyt-110" style="edgeStyle=orthogonalEdgeStyle;rounded=0;orthogonalLoop=1;jettySize=auto;html=1;" edge="1" parent="1" source="5b7TOtmZeHApVHeLRPyt-86">
          <mxGeometry relative="1" as="geometry">
            <mxPoint x="480" y="1730" as="targetPoint" />
            <Array as="points">
              <mxPoint x="906" y="1730" />
            </Array>
          </mxGeometry>
        </mxCell>
        <mxCell id="5b7TOtmZeHApVHeLRPyt-86" value="CONTINUE" style="rounded=1;whiteSpace=wrap;html=1;" vertex="1" parent="1">
          <mxGeometry x="791.5" y="1630" width="230" height="40" as="geometry" />
        </mxCell>
        <mxCell id="5b7TOtmZeHApVHeLRPyt-87" value="" style="edgeStyle=orthogonalEdgeStyle;rounded=0;orthogonalLoop=1;jettySize=auto;html=1;" edge="1" parent="1" source="5b7TOtmZeHApVHeLRPyt-88" target="5b7TOtmZeHApVHeLRPyt-90">
          <mxGeometry relative="1" as="geometry" />
        </mxCell>
        <mxCell id="5b7TOtmZeHApVHeLRPyt-88" value="mode == 1 AND k == 3" style="rhombus;whiteSpace=wrap;html=1;" vertex="1" parent="1">
          <mxGeometry x="1132.5" y="1280" width="165" height="100" as="geometry" />
        </mxCell>
        <mxCell id="5b7TOtmZeHApVHeLRPyt-89" value="" style="edgeStyle=orthogonalEdgeStyle;rounded=0;orthogonalLoop=1;jettySize=auto;html=1;" edge="1" parent="1" source="5b7TOtmZeHApVHeLRPyt-90" target="5b7TOtmZeHApVHeLRPyt-91">
          <mxGeometry relative="1" as="geometry" />
        </mxCell>
        <mxCell id="5b7TOtmZeHApVHeLRPyt-90" value="k = k + 1" style="rounded=1;whiteSpace=wrap;html=1;" vertex="1" parent="1">
          <mxGeometry x="1100" y="1540" width="230" height="40" as="geometry" />
        </mxCell>
        <mxCell id="5b7TOtmZeHApVHeLRPyt-111" style="edgeStyle=orthogonalEdgeStyle;rounded=0;orthogonalLoop=1;jettySize=auto;html=1;" edge="1" parent="1" source="5b7TOtmZeHApVHeLRPyt-91">
          <mxGeometry relative="1" as="geometry">
            <mxPoint x="900" y="1730" as="targetPoint" />
            <Array as="points">
              <mxPoint x="1215" y="1730" />
              <mxPoint x="910" y="1730" />
            </Array>
          </mxGeometry>
        </mxCell>
        <mxCell id="5b7TOtmZeHApVHeLRPyt-91" value="CONTINUE" style="rounded=1;whiteSpace=wrap;html=1;" vertex="1" parent="1">
          <mxGeometry x="1100" y="1630" width="230" height="40" as="geometry" />
        </mxCell>
        <mxCell id="5b7TOtmZeHApVHeLRPyt-92" value="True" style="text;html=1;align=center;verticalAlign=middle;resizable=0;points=[];autosize=1;strokeColor=none;" vertex="1" parent="1">
          <mxGeometry x="482.5" y="1420" width="40" height="20" as="geometry" />
        </mxCell>
        <mxCell id="5b7TOtmZeHApVHeLRPyt-93" value="True" style="text;html=1;align=center;verticalAlign=middle;resizable=0;points=[];autosize=1;strokeColor=none;" vertex="1" parent="1">
          <mxGeometry x="902.5" y="1380" width="40" height="20" as="geometry" />
        </mxCell>
        <mxCell id="5b7TOtmZeHApVHeLRPyt-94" value="True" style="text;html=1;align=center;verticalAlign=middle;resizable=0;points=[];autosize=1;strokeColor=none;" vertex="1" parent="1">
          <mxGeometry x="1217.5" y="1380" width="40" height="20" as="geometry" />
        </mxCell>
        <mxCell id="5b7TOtmZeHApVHeLRPyt-95" value="False" style="text;html=1;align=center;verticalAlign=middle;resizable=0;points=[];autosize=1;strokeColor=none;" vertex="1" parent="1">
          <mxGeometry x="692.5" y="1310" width="40" height="20" as="geometry" />
        </mxCell>
        <mxCell id="5b7TOtmZeHApVHeLRPyt-96" value="False" style="text;html=1;align=center;verticalAlign=middle;resizable=0;points=[];autosize=1;strokeColor=none;" vertex="1" parent="1">
          <mxGeometry x="1037.5" y="1310" width="40" height="20" as="geometry" />
        </mxCell>
        <mxCell id="5b7TOtmZeHApVHeLRPyt-103" style="edgeStyle=orthogonalEdgeStyle;rounded=0;orthogonalLoop=1;jettySize=auto;html=1;entryX=0.5;entryY=0;entryDx=0;entryDy=0;" edge="1" parent="1" source="5b7TOtmZeHApVHeLRPyt-100" target="5b7TOtmZeHApVHeLRPyt-101">
          <mxGeometry relative="1" as="geometry" />
        </mxCell>
        <mxCell id="5b7TOtmZeHApVHeLRPyt-100" value="PRINT(i + &quot; &quot; * (int(space[k]) - int(LEN(i))) + &quot; | &quot;, end = &quot;&quot;)" style="rounded=1;whiteSpace=wrap;html=1;" vertex="1" parent="1">
          <mxGeometry x="797.5" y="1790" width="230" height="50" as="geometry" />
        </mxCell>
        <mxCell id="5b7TOtmZeHApVHeLRPyt-105" style="edgeStyle=orthogonalEdgeStyle;rounded=0;orthogonalLoop=1;jettySize=auto;html=1;entryX=1;entryY=0.5;entryDx=0;entryDy=0;" edge="1" parent="1" source="5b7TOtmZeHApVHeLRPyt-101" target="5b7TOtmZeHApVHeLRPyt-104">
          <mxGeometry relative="1" as="geometry" />
        </mxCell>
        <mxCell id="5b7TOtmZeHApVHeLRPyt-101" value="start = 1" style="rounded=1;whiteSpace=wrap;html=1;" vertex="1" parent="1">
          <mxGeometry x="797.5" y="1890" width="230" height="40" as="geometry" />
        </mxCell>
        <mxCell id="5b7TOtmZeHApVHeLRPyt-102" style="edgeStyle=orthogonalEdgeStyle;rounded=0;orthogonalLoop=1;jettySize=auto;html=1;entryX=1;entryY=0.5;entryDx=0;entryDy=0;exitX=1;exitY=0.5;exitDx=0;exitDy=0;" edge="1" parent="1" source="5b7TOtmZeHApVHeLRPyt-88" target="5b7TOtmZeHApVHeLRPyt-100">
          <mxGeometry relative="1" as="geometry">
            <mxPoint x="1047.5" y="1815" as="targetPoint" />
            <Array as="points">
              <mxPoint x="1357.5" y="1330" />
              <mxPoint x="1357.5" y="1815" />
            </Array>
          </mxGeometry>
        </mxCell>
        <mxCell id="5b7TOtmZeHApVHeLRPyt-112" style="edgeStyle=orthogonalEdgeStyle;rounded=0;orthogonalLoop=1;jettySize=auto;html=1;" edge="1" parent="1" source="5b7TOtmZeHApVHeLRPyt-104">
          <mxGeometry relative="1" as="geometry">
            <mxPoint x="229.99999999999977" y="1730" as="targetPoint" />
          </mxGeometry>
        </mxCell>
        <mxCell id="5b7TOtmZeHApVHeLRPyt-104" value="i" style="ellipse;whiteSpace=wrap;html=1;aspect=fixed;" vertex="1" parent="1">
          <mxGeometry x="577.5" y="1890" width="40" height="40" as="geometry" />
        </mxCell>
        <mxCell id="5b7TOtmZeHApVHeLRPyt-108" style="edgeStyle=orthogonalEdgeStyle;rounded=0;orthogonalLoop=1;jettySize=auto;html=1;entryX=0.5;entryY=0;entryDx=0;entryDy=0;" edge="1" parent="1" source="5b7TOtmZeHApVHeLRPyt-69" target="5b7TOtmZeHApVHeLRPyt-77">
          <mxGeometry relative="1" as="geometry">
            <Array as="points">
              <mxPoint x="910" y="1190" />
              <mxPoint x="482" y="1190" />
            </Array>
          </mxGeometry>
        </mxCell>
        <mxCell id="5b7TOtmZeHApVHeLRPyt-116" value="" style="edgeStyle=orthogonalEdgeStyle;rounded=0;orthogonalLoop=1;jettySize=auto;html=1;" edge="1" parent="1" source="5b7TOtmZeHApVHeLRPyt-113" target="5b7TOtmZeHApVHeLRPyt-115">
          <mxGeometry relative="1" as="geometry" />
        </mxCell>
        <mxCell id="5b7TOtmZeHApVHeLRPyt-113" value="PRINT(&quot;&quot;)" style="rounded=1;whiteSpace=wrap;html=1;" vertex="1" parent="1">
          <mxGeometry x="1142" y="1085" width="145" height="40" as="geometry" />
        </mxCell>
        <mxCell id="5b7TOtmZeHApVHeLRPyt-114" style="edgeStyle=orthogonalEdgeStyle;rounded=0;orthogonalLoop=1;jettySize=auto;html=1;entryX=0;entryY=0.5;entryDx=0;entryDy=0;" edge="1" parent="1" source="5b7TOtmZeHApVHeLRPyt-69" target="5b7TOtmZeHApVHeLRPyt-113">
          <mxGeometry relative="1" as="geometry" />
        </mxCell>
        <mxCell id="5b7TOtmZeHApVHeLRPyt-118" style="edgeStyle=orthogonalEdgeStyle;rounded=0;orthogonalLoop=1;jettySize=auto;html=1;entryX=0;entryY=0.5;entryDx=0;entryDy=0;" edge="1" parent="1" source="5b7TOtmZeHApVHeLRPyt-115" target="5b7TOtmZeHApVHeLRPyt-117">
          <mxGeometry relative="1" as="geometry" />
        </mxCell>
        <mxCell id="5b7TOtmZeHApVHeLRPyt-115" value="PRINT(&quot;-&quot; * blanks)" style="rounded=1;whiteSpace=wrap;html=1;" vertex="1" parent="1">
          <mxGeometry x="1360" y="1085" width="145" height="40" as="geometry" />
        </mxCell>
        <mxCell id="5b7TOtmZeHApVHeLRPyt-117" value="5" style="ellipse;whiteSpace=wrap;html=1;aspect=fixed;" vertex="1" parent="1">
          <mxGeometry x="1620" y="1085" width="40" height="40" as="geometry" />
        </mxCell>
      </root>
    </mxGraphModel>
  </diagram>
</mxfile>
